<svg id="Layer_1" data-name="Layer 1" xmlns="http://www.w3.org/2000/svg"
    viewBox="344.5639097744361 330.27819548872174 111.73684210526318 91.21804511278197" width="53.87" height="43.61">
    <defs>
        <style>
            .cls-1 {
                fill: #8b76b4;
            }

            .cls-2 {
                fill: #433187;
            }

            .cls-3 {
                fill: #231f20;
            }

            .cls-4 {
                fill: #eb7b49;
            }

            .cls-5 {
                fill: #f0a852;
            }
        </style>
    </defs>
    <path class="cls-1"
        d="M604.53,307.77c.3,4,.43,8.05.43,12.13A175.74,175.74,0,0,1,535.8,459.78c1-4.23.3-10,.54-13.74.15-2.58-.2-5.18,0-7.76.92-9.91,9.81-16.82,16-24.6a52.27,52.27,0,0,0,11.18-28.36c.15-2,.15-4.13-1-5.72a9,9,0,0,0-3.57-2.54c-4.88-2.41-9.95-4.86-15.39-4.88-6.22,0-12.09,3.2-18.32,3.27a18.4,18.4,0,0,1-12.84-5.19c-4.24-4.15-6.2-10.08-7.4-15.89-1.35-6.62-1.91-13.63.26-20s7-11.8,9.44-18.21c1.61-4.19,2.17-8.82,4.34-12.75a17.9,17.9,0,0,1,15.68-9.08c2.36.05,4.73.56,7.05.15,4.63-.79,7.64-4.88,11-8.38a6.9,6.9,0,0,1,10.73.71c5.7,8.58-1,17.59,6.54,24.88,4.06,3.91,11.52,4.64,16.21,1.5,4.45-3,.19-4.67-1.25-7s.39-5.7,3-6.58,5.53,0,8,1.31A27.7,27.7,0,0,1,604.53,307.77Z" />
    <path class="cls-2"
        d="M604.5,307.47a.61.61,0,0,1,0,.3,27.7,27.7,0,0,0-8.46-6.86c-2.47-1.29-5.37-2.19-8-1.31s-4.51,4.22-3,6.58,5.7,4,1.25,7c-4.69,3.14-12.15,2.41-16.21-1.5-7.55-7.29-.84-16.3-6.54-24.88a6.9,6.9,0,0,0-10.73-.71c-3.33,3.5-6.34,7.59-11,8.38-2.32.41-4.69-.1-7.05-.15a17.9,17.9,0,0,0-15.68,9.08c-2.17,3.93-2.73,8.56-4.34,12.75-2.45,6.41-7.25,11.72-9.44,18.21s-1.61,13.4-.26,20c1.2,5.81,3.16,11.74,7.4,15.89a18.4,18.4,0,0,0,12.84,5.19c6.23-.07,12.1-3.27,18.32-3.27,5.44,0,10.51,2.47,15.39,4.88a9,9,0,0,1,3.57,2.54c1.16,1.59,1.16,3.74,1,5.72a52.27,52.27,0,0,1-11.18,28.36c-6.23,7.78-15.12,14.69-16,24.6-.24,2.58.11,5.18,0,7.76-.24,3.74.45,9.51-.54,13.74a176.29,176.29,0,0,1-129.62,34.71l19.46-2.11c-4-4.79-4.65-11.7-3.08-17.69s5.12-11.32,9-16.2a70.41,70.41,0,0,1,11.55-11.91c2.64-2.09,5.48-3.87,8-6.11,9.16-8.15,12.5-20.83,15.38-32.75.62-2.6,1.25-5.55-2.37-7.44a9.48,9.48,0,0,0-4.6-.9,46.7,46.7,0,0,1-25.57-7c-5.26-3.29-9.82-7.61-14.66-11.53-9.64-7.78-20.65-14.12-32.71-16.92s-25.24-1.78-36,4.26l.13-.71a6,6,0,0,0-5.53-5.59c-2.73-.13-5.91,1.57-7.95-.28-3-2.71,1.35-8.82-1.7-11.51s-8.07,2.39-11.57.41c-2.69-1.5-2-5.52-.9-8.4a7.94,7.94,0,0,0-11-.11c-1,1.05-1.75,2.38-2.86,3.35-2.91,2.52-7.79,1.44-10.3-1.48s-3.1-7.05-2.84-10.9c.54-8.07,6.1-16.86,14.19-16.73,2.09,0,4.17.66,6.21.25,3.55-.68,6.86-4.36,10.22-1.67a5.84,5.84,0,0,1,2,5.31c-.41,2.9.43,8.43,4,8.62,2.15-.69,3.23-3.16,3.33-5.4s-.51-4.49-.51-6.75c0-3.52,1.48-6.86,2.92-10.08,3-6.61,5.94-13.19,8.9-19.79a15.38,15.38,0,0,1,2.46-4.15c1.33-1.39,3.13-2.21,4.7-3.31,8.13-5.8,8.65-18.58,16.78-24.38-.6,2,2.17,3.37,4.28,3.22a11.5,11.5,0,0,0,10.1-9.18c.5-2.75-.06-5.57.35-8.32s2.3-5.7,5.07-5.74c-2.06,3.44-.36,8.45,3.27,10.17s12.49,4.9,14.45,1.42-3-13.16-5.91-15.92a10.35,10.35,0,0,1-2.54-2.71c-.95-1.91.06-4.19.3-6.32.52-4.9,1.31-9-3.27-10.81s-14.47-2.07-19.39-2.13-10.13-.39-14.3-3.06c-2.91-1.82-5.66-4.86-9.44-2.66a6.85,6.85,0,0,0-2.2,2l-5.76-2.2a6.39,6.39,0,0,0,2.56-4.45c.21-2.86-2.5-5.76-5.29-5.16a24.85,24.85,0,0,1,18.15-13c1.31-.19,2.88-.17,3.61.91,1,1.52-.54,3.52-2.24,4.23s-3.69.88-4.92,2.24c-1.42,1.59-1.1,4.15.13,5.87a14.21,14.21,0,0,0,5,3.78c2.07,1.12,4.34,2.28,6.67,1.94a11.12,11.12,0,0,0,4.53-2.26c4.11-2.88,8.3-5.89,11-10.11s3.6-10,.8-14.21a7.24,7.24,0,0,0-4-3.05,22.11,22.11,0,0,0-3.81-.33,11.07,11.07,0,0,1-9.5-8.23l8.49-7.1a36.68,36.68,0,0,1,24.22,11.87,7.32,7.32,0,0,1,2.23,4.32c0,1.57-.84,3-1.07,4.58-.37,2.56,1.05,5,2.41,7.21q3.12,5.06,6.28,10.1a2.92,2.92,0,0,0,1.16,1.27c.77.37,1.35,5.7,2.17,5.49,4.17-1.06,9.24-4.09,10.58,0a18.71,18.71,0,0,0,7-12.54c.15-1.46.17-3.05,1.05-4.26,1.83-2.51,5.83-1.59,8.58-3,2.32-1.22,3.38-3.89,4.77-6.11a18.34,18.34,0,0,1,18.07-8.08,55.53,55.53,0,0,0-9-14.11l4.25-3a155.28,155.28,0,0,1,22.43,4.75,175,175,0,0,1,44.66,21.63l3.62,3.68c2.45,4.54-4.86,14.39-3.14,19.23.69,1.89,2.43,3.16,4,4.36a66.28,66.28,0,0,1,13,13.1c1.53,2,7.16,4,5.53,5.95-1.31,1.55-8.3,2.65-9,4.54-.54,1.51.62,3.05.62,4.65,0,3.41-4.55,4.49-7.18,6.66a2.89,2.89,0,0,0-.13,4.15c1.81,2.11,4,10.93,2.18,14.09-2.71,4.71-12.07-3.25-14.24,5.76a11.6,11.6,0,0,0,.24,5.7l3.48,12.28a8.26,8.26,0,0,0,2.22,3.82c3.24,3,6.38.46,9.65,0,4.56-.69,9.89,2.62,12.79-3.68a11.27,11.27,0,0,0,1.08-4.51c.11-4.71,3.31-8,6.37-11,2.32-2.33,4.92-4.82,9.13-2.89a9.7,9.7,0,0,1,3.53,2.93c5.2,6.71,4.8,17-.67,23.42a8.73,8.73,0,0,0,11,3.46c3.83-1.83,9.72-9.21,8.13-13.12,2.56-.28.43,4.88.8,7.44s0,5.27,1.05,7.61c2.13,4.54,9.14,6,9.85,10.95ZM494,181.85c0,1.2.67-1,0,0,0-2.84-1.82-8.26-4.66-8.39s-5.51,1.1-8.13,2.13-3.63,1.1-6.34.28a17.63,17.63,0,0,0-7-.15c-2.28.58-4.41,2.34-4.69,4.67a5.14,5.14,0,0,0,.65,3c2.15,4.06,7.59,4.66,12.17,4.66a37.85,37.85,0,0,0,9.85-.92A14.18,14.18,0,0,0,494,181.85Z" />
    <path class="cls-1"
        d="M604.5,307.47l-3.33-5.2c-.71-5-7.72-6.41-9.85-10.95-1.07-2.34-.69-5.07-1.05-7.61s1.76-7.72-.8-7.44c1.59,3.91-4.3,11.29-8.13,13.12a8.73,8.73,0,0,1-11-3.46c5.47-6.43,5.87-16.71.67-23.42a9.7,9.7,0,0,0-3.53-2.93c-4.21-1.93-6.81.56-9.13,2.89-3.06,3-6.26,6.34-6.37,11a11.27,11.27,0,0,1-1.08,4.51c-2.9,6.3-8.23,3-12.79,3.68-3.27.5-6.41,3.05-9.65,0a8.26,8.26,0,0,1-2.22-3.82l-3.48-12.28a11.6,11.6,0,0,1-.24-5.7c2.17-9,11.53-1.05,14.24-5.76,1.84-3.16-.37-12-2.18-14.09a2.89,2.89,0,0,1,.13-4.15c2.63-2.17,7.21-3.25,7.18-6.66,0-1.6-1.16-3.14-.62-4.65.67-1.89,7.66-3,9-4.54,1.63-1.93-4-3.93-5.53-5.95a66.28,66.28,0,0,0-13-13.1c-1.61-1.2-3.35-2.47-4-4.36-1.72-4.84,5.59-14.69,3.14-19.23l-3.62-3.68A175.86,175.86,0,0,1,604.5,307.47Z" />
    <path class="cls-1"
        d="M489.31,173.46c2.84.13,4.62,5.55,4.66,8.39a14.18,14.18,0,0,1-8.12,5.31,37.85,37.85,0,0,1-9.85.92c-4.58,0-10-.6-12.17-4.66a5.14,5.14,0,0,1-.65-3c.28-2.33,2.41-4.09,4.69-4.67a17.63,17.63,0,0,1,7,.15c2.71.82,3.7.75,6.34-.28S486.49,173.33,489.31,173.46Z" />
    <path class="cls-1"
        d="M464.06,400.28c3.62,1.89,3,4.84,2.37,7.44-2.88,11.92-6.22,24.6-15.38,32.75-2.49,2.24-5.33,4-8,6.11a70.41,70.41,0,0,0-11.55,11.91c-3.85,4.88-7.4,10.17-9,16.2s-.88,12.9,3.08,17.69l-19.46,2.11c-2.37-.3-4.71-.65-7-1.05a71.48,71.48,0,0,1-11-13.53,21.23,21.23,0,0,1-3.06-6.71c-.88-4.3.58-8.69,1.83-12.88,2.41-8,4-17.14-.13-24.45-3.25-5.81-9.46-9.27-15.7-11.57s-12.81-3.76-18.64-6.94c-4.06-2.24-7.87-5.55-9.12-10-2.77-9.81,7.53-20.33,3.53-29.68-.45-1-1.23-2.06-2.32-2.09s-1.81.91-2.65,1.53c-2.79,2.19-7,1.31-9.89-.79s-4.86-5.14-7.29-7.75a29.39,29.39,0,0,0-22.43-9.05c-6,.3-12.88,2.24-17.55-1.59-5.44-4.47-3.95-13.93-9.18-18.66-1.83.4-.62,3.11-.34,5,.47,3.16-3.66,5.42-6.69,4.39s-4.9-4-6.34-6.86-2.78-6-5.38-7.83l-3.4.3q-.57-7.1-.58-14.32A176.15,176.15,0,0,1,376.78,151.66l.62,2.06-8.49,7.1a11.07,11.07,0,0,0,9.5,8.23,22.11,22.11,0,0,1,3.81.33,7.24,7.24,0,0,1,4,3.05c2.8,4.17,1.91,10-.8,14.21s-6.9,7.23-11,10.11a11.12,11.12,0,0,1-4.53,2.26c-2.33.34-4.6-.82-6.67-1.94a14.21,14.21,0,0,1-5-3.78c-1.23-1.72-1.55-4.28-.13-5.87,1.23-1.36,3.23-1.55,4.92-2.24s3.27-2.71,2.24-4.23c-.73-1.08-2.3-1.1-3.61-.91a24.85,24.85,0,0,0-18.15,13c2.79-.6,5.5,2.3,5.29,5.16a6.39,6.39,0,0,1-2.56,4.45,8.61,8.61,0,0,1-2.9,1.42,13.91,13.91,0,0,1-8.37-.92c-1.55-.61-3.14-1.36-4.79-1.23-2.58.19-4.54,2.5-5.62,4.86-1.74,3.87-4.94,8.95-3,12.71s9.35,5.91,13.57,5.31a13.86,13.86,0,0,0,6.71-3.37,27.28,27.28,0,0,0,8.83-13.87,7.88,7.88,0,0,1,1.29-2.71,6.85,6.85,0,0,1,2.2-2c3.78-2.2,6.53.84,9.44,2.66,4.17,2.67,9.35,3,14.3,3.06s14.81.3,19.39,2.13,3.79,5.91,3.27,10.81c-.24,2.13-1.25,4.41-.3,6.32a10.35,10.35,0,0,0,2.54,2.71c2.9,2.76,7.89,12.43,5.91,15.92s-10.84.28-14.45-1.42-5.33-6.73-3.27-10.17c-2.77,0-4.66,3-5.07,5.74s.15,5.57-.35,8.32a11.5,11.5,0,0,1-10.1,9.18c-2.11.15-4.88-1.2-4.28-3.22-8.13,5.8-8.65,18.58-16.78,24.38-1.57,1.1-3.37,1.92-4.7,3.31a15.38,15.38,0,0,0-2.46,4.15c-3,6.6-5.93,13.18-8.9,19.79-1.44,3.22-2.92,6.56-2.92,10.08,0,2.26.6,4.5.51,6.75s-1.18,4.71-3.33,5.4c-3.59-.19-4.43-5.72-4-8.62a5.84,5.84,0,0,0-2-5.31c-3.36-2.69-6.67,1-10.22,1.67-2,.41-4.12-.23-6.21-.25-8.09-.13-13.65,8.66-14.19,16.73-.26,3.85.32,8,2.84,10.9s7.39,4,10.3,1.48c1.11-1,1.82-2.3,2.86-3.35a7.94,7.94,0,0,1,11,.11c-1.08,2.88-1.79,6.9.9,8.4,3.5,2,8.56-3.09,11.57-.41s-1.33,8.8,1.7,11.51c2,1.85,5.22.15,7.95.28a6,6,0,0,1,5.53,5.59l-.13.71c10.8-6,24-7.05,36-4.26s23.07,9.14,32.71,16.92c4.84,3.92,9.4,8.24,14.66,11.53a46.7,46.7,0,0,0,25.57,7A9.48,9.48,0,0,1,464.06,400.28Z" />
    <path class="cls-1"
        d="M482.49,152.15a155.28,155.28,0,0,0-22.43-4.75l-4.25,3a55.53,55.53,0,0,1,9,14.11,18.34,18.34,0,0,0-18.07,8.08c-1.39,2.22-2.45,4.89-4.77,6.11-2.75,1.42-6.75.5-8.58,3-.88,1.21-.9,2.8-1.05,4.26a18.71,18.71,0,0,1-7,12.54c-1.34-4.09-6.41-1.06-10.58,0-.82.21-1.4-5.12-2.17-5.49a2.92,2.92,0,0,1-1.16-1.27q-3.17-5.06-6.28-10.1c-1.36-2.2-2.78-4.65-2.41-7.21.23-1.54,1.12-3,1.07-4.58a7.32,7.32,0,0,0-2.23-4.32,36.68,36.68,0,0,0-24.22-11.87l-.62-2.06a177.06,177.06,0,0,1,105.71.49Z" />
    <path class="cls-2"
        d="M388.16,479.91a71.48,71.48,0,0,0,11,13.53A176.07,176.07,0,0,1,253.41,334.22l3.4-.3c2.6,1.85,4,5,5.38,7.83s3.31,5.83,6.34,6.86,7.16-1.23,6.69-4.39c-.28-1.85-1.49-4.56.34-5,5.23,4.73,3.74,14.19,9.18,18.66,4.67,3.83,11.53,1.89,17.55,1.59a29.39,29.39,0,0,1,22.43,9.05c2.43,2.61,4.43,5.66,7.29,7.75s7.1,3,9.89.79c.84-.62,1.61-1.55,2.65-1.53s1.87,1.08,2.32,2.09c4,9.35-6.3,19.87-3.53,29.68,1.25,4.47,5.06,7.78,9.12,10,5.83,3.18,12.41,4.64,18.64,6.94s12.45,5.76,15.7,11.57c4.11,7.31,2.54,16.41.13,24.45-1.25,4.19-2.71,8.58-1.83,12.88A21.23,21.23,0,0,0,388.16,479.91Z" />
    <path class="cls-2"
        d="M346.18,202.64l5.76,2.2a7.88,7.88,0,0,0-1.29,2.71,27.28,27.28,0,0,1-8.83,13.87,13.86,13.86,0,0,1-6.71,3.37c-4.22.6-11.57-1.57-13.57-5.31s1.22-8.84,3-12.71c1.08-2.36,3-4.67,5.62-4.86,1.65-.13,3.24.62,4.79,1.23a13.91,13.91,0,0,0,8.37.92A8.61,8.61,0,0,0,346.18,202.64Z" />
    <path class="cls-3"
        d="M418.37,497.61c-100,0-181.44-81.39-181.44-181.44s81.4-181.44,181.44-181.44,181.44,81.4,181.44,181.44S518.42,497.61,418.37,497.61Zm0-352.13c-94.11,0-170.68,76.57-170.68,170.69s76.57,170.69,170.68,170.69,170.69-76.57,170.69-170.69S512.49,145.48,418.37,145.48Z" />
    <path class="cls-3"
        d="M442.55,149.46A63.52,63.52,0,0,1,451,162.78l3.34-5.82a23.28,23.28,0,0,0-13.51,2.58c-5,2.8-6.62,7.89-10.93,11.09-3.14,2.34-7.41,1.62-10,5.06-3.87,5.08-2.24,11.34-7.74,16.4l6.08.78c-1.41-2-2.17-2.93-4.46-3.65-2.72-.85-5.67,1.64-7.91,1.07,2.16.55.41-1.27-.68-3.3-3.28-6.08-8.17-10-8.51-17.48-.3-6.46-1.08-9.33-6.57-13.92-6.77-5.66-14.52-8.39-23.18-9.47-4.93-.63-4.88,7.12,0,7.74,7.32.92,20.34,5,22.28,13.6.72,3.21-.79,6,.65,9.73,1.85,4.75,5.66,8.78,8.08,13.23,1.32,2.43,1.91,5,3.65,7.14a3.78,3.78,0,0,0,3.77,1c.08,0,5.88-2.21,6.19-1.78a3.94,3.94,0,0,0,6.08.78c6.07-5.57,6.16-14.8,12.68-18.09,9.13-4.6,12-15.69,24.06-14.77,3.16.24,4.5-3.41,3.34-5.83A72.43,72.43,0,0,0,448,144c-3.18-3.84-8.63,1.66-5.48,5.48Z" />
    <path class="cls-3"
        d="M354.66,158.13c1.33,3.42,2.82,6.26,5.93,8.41,4.83,3.35,16.75,2.06,11,14.42-1.18,2.51-6.81,7.62-9.62,8.72-3.46,1.36-10.9,1.24-8-4.69,1-2.06,4-2.18,4.74-5.12,1.35-5.68-4.15-7.69-8.63-7.29-8.77.77-16.2,7.62-20.46,14.78-1.17,2-.19,5.27,2.31,5.68l-2,3.73a24,24,0,0,1-5.72-1.54c-1.47-.34-3.07-1-4.64-.92a9.83,9.83,0,0,0-6,2.84c-3.69,3.29-7.54,11.61-7,16.72,1.6,13.88,21,12.7,28.66,5.4a34.15,34.15,0,0,0,7.23-10.49c2.87-6,4.52-4.77,9.92-3,7.52,2.52,14.13,2.64,22,3.13,7,.44,11.19.67,11.62,8.55.15,2.86-1.08,5.79.3,8.59,1.52,3.07,4.95,4.63,6.21,8,.9,2.4,2.7,5-1.25,5.85-3.79.77-8.44-4.22-7.14-7.79,1-2.67-2.08-5.73-4.76-4.76-3.1,1.13-5.14,2.18-6.71,5.28a14.94,14.94,0,0,0-1.22,4.19l-.16,2.77q1,7-7,10.48c-.65-3.06-4.41-3.46-6.47-1.7-7.24,6.19-8.21,16.14-14.75,22.63-2.95,2.94-6.37,4.27-8.72,7.82-3,4.54-4.77,10.41-7,15.37-1.84,4.08-4.09,8.15-5.31,12.46a23.22,23.22,0,0,0-1.12,6.18c0,.64.86,7.41.75,4.13-.17-5.15-2.33-10.11-8-10.58-3.76-.32-7.32,2.16-11.07,2.5-3.91.35-6.36-.49-10.06,1.37-6.53,3.28-10.29,10.93-11,17.92-.62,6.3.92,13.71,6.89,17.09a12.18,12.18,0,0,0,8,1.36c4.21-.87,9.37-8.29,13.88-4.95l-1.77-4.37c-1.05,3.48-1.89,7.48.46,10.63,3.7,5,6.83,1.05,11.16,2.08,2.92.71,1.13.56,1.29,4.23a8.71,8.71,0,0,0,1.16,4.75c2.7,4.36,12.41,2,13.57,5.75,1.46,4.74,8.93,2.72,7.47-2.06-1-3.36-2.13-5.84-5.53-7.43-2.08-1-4.93.05-6.55-.73-3.75-1.82-1.36-1.42-1.91-5.6-.35-2.61-1.08-4.71-3.43-6.13-3.26-2-11.78,1.74-10.23-3.43A4,4,0,0,0,314.4,335c-3.8-2.8-8.54-3.78-12.94-1.5-3.69,1.91-6.78,9.84-11.91.49-3.69-6.72,4.09-16.44,10.07-17.64a61.49,61.49,0,0,1,9.58-.67c5.1.82,3.56,2.59,5.29,5.77s2.81,7.61,7.59,7.42c4.18-.17,6.53-4.68,7.05-8.25,1-6.61-.75-8.49,2-15.91,1.68-4.48,4-8.82,5.94-13.18,2.67-5.92,3.78-8.27,8.72-12.68a36.54,36.54,0,0,0,5.17-5.16c4.82-6.4,6.12-14.45,12.41-19.83l-6.47-1.71c1.27,6,7.66,7.11,12.8,4.9a15.9,15.9,0,0,0,7.74-7.16c1.69-3.29.73-13.85,4-15.05l-4.77-4.76c-5.72,15.76,24.09,25.54,25.75,11,.49-4.27-2.21-9.65-4.44-13.14-2.64-4.13-4.51-4.7-4.15-10.23.71-10.73-2.61-14.67-13.47-16.08-5.35-.7-10.69-.41-16.05-.81-6.75-.52-11.68-6.38-18-6.33-11.91.11-10.49,19.12-21.56,22-7.84,2-13-4.53-7.44-11.58,3-3.82,5-1.76,8.76-1,4,.8,8.23.64,11.61-1.84,7.06-5.18,4.76-15.2-3.74-16.58l2.31,5.68c3.06-5.14,7.17-5.85,10.8-9.71,1.87-2,3.26-3.12-.36-1.88-3.14,1.08-4.19,5.05-3.82,8,1,7.57,11.86,12.88,18.68,11,8.15-2.31,17.65-11.91,19.32-20.26a15.87,15.87,0,0,0-1.85-11.56c-3.44-5.27-15-5.74-16.92-10.69-1.78-4.6-9.27-2.6-7.47,2.06Z" />
    <path class="cls-3"
        d="M341.92,367.82c20.95-10.67,44-3.1,61.75,10.32,7.41,5.61,14,12.36,22.48,16.38a50.53,50.53,0,0,0,11,3.81c3.67.78,13.62.38,15,4.64.86,2.66-2.67,10.38-3.59,13-1.92,5.56-4.41,11.25-8.43,15.66-6,6.58-13.91,10.85-19.77,17.76-9.83,11.59-18.12,27-8.6,41.16,2.76,4.12,9.47.25,6.68-3.91-16-23.83,24.28-41.29,33.35-58.43,5.45-10.3,16-32.67-1.07-36.22-4.94-1-10.06-.53-15-2.06-7.13-2.22-12.88-6.1-18.6-10.78-7.93-6.47-15.66-12.79-25-17.25-17.41-8.33-36.75-9.7-54.2-.81-4.44,2.26-.52,8.94,3.91,6.68Z" />
    <path class="cls-3"
        d="M243.56,332.93c5.31,5.27,7.58,17.25,17.37,15.95a9.36,9.36,0,0,0,6.4-3.88c.75-1.17.51-6.79.46-6.73h-5.48c5.71,6.75,3.53,17,12.94,20.93,10.8,4.47,21.46-2.51,32.26,5,7,4.83,11.75,16.34,22.07,14.12,4.82-1,5.07-4,3.44,3-1.24,5.28-3.71,10.45-4.31,15.87-2.45,22.34,25.43,21.92,38.38,31.05,16.15,11.38,1.26,26.76,3.63,41.24,1.56,9.5,10.24,18.29,16.91,24.6,3.62,3.43,9.1-2,5.48-5.47-4.44-4.2-9.3-8.9-12.12-14.36-4.69-9.05-.72-14.79.9-23.7,1.51-8.32,1-17.13-4.72-23.85-6.4-7.57-16.11-9.83-25-13-8.22-2.93-17.1-7-15.49-17.2.77-4.86,3.41-9.28,4.14-14.18.69-4.64.4-12.42-5.26-14-2.26-.64-3.28.89-5.24,1-8,.53-10.66-5.17-16-9.67a33.75,33.75,0,0,0-24-7.62c-2.19.13-5.59,1.28-7.75.63-4.94-1.51-7.83-5.87-9.58-10.05-1.62-3.88-2.35-6.54-5.13-9.83a3.9,3.9,0,0,0-5.48,0c-1.6,1.76-1,5.28-1.84,6.19-2,2.26-9.24-9.35-11.43-11.52-3.54-3.52-9,2-5.48,5.47Z" />
    <path class="cls-3"
        d="M462.59,167.21c-5.53-.76-12.35-1-15.49,4.67-2.53,4.58-.17,10,4,12.59,4.75,3,11.24,2.85,16.61,2.41a27.56,27.56,0,0,0,8.42-1.8c2.89-1.19,4.41-3.59,6.85-5l-5.69-4.37-.15.49,7.08-.93c.38.78-.58-3.53-1-4.59a10.63,10.63,0,0,0-3.69-4.87c-5.69-3.7-11.27,2.81-16.88,1.38-4.83-1.23-6.89,6.24-2.06,7.47,4.42,1.12,6.2-.22,10.39-1.06,2.57-.52,4.55-.89,5.7,1.85.51,1.21.28,2.49.89,3.73,1.55,3.11,6.16,2.08,7.08-.92l.15-.49c1-3.29-2.82-6-5.69-4.38-1.56.89-2.35,2.51-3.87,3.53-2.47,1.67-5.59,2.09-8.48,2.28a38.27,38.27,0,0,1-7.1,0,12.59,12.59,0,0,1-4-1q-.12-5.67,4.93-3.49c4.87.67,7-6.79,2.06-7.47Z" />
    <path class="cls-3"
        d="M518.06,174.7c1.64,6-6.24,12-4.78,18.49.72,3.22,2.94,4.73,5.13,6.88,4.37,4.26,8.66,8.86,13,13.08.51.49,1.38,1.61,2.1,1.82,3.6,1.05,1.83-.71,1.4-.53-2,.78-4.6,1.29-6.13,2.85-2.31,2.35-1,3-1.84,5.92-1.07,3.54-4.38,5.13-7,7.82a3.89,3.89,0,0,0-1,3.77c.82,2.7,2.65,4.57,3.39,7.4,1.52,5.74,1.17,4.78-2.31,5.78-3.88,1.11-7.34-.52-10.19,3.5-4.75,6.69-.22,22.07,4.34,27.9,2.56,3.28,5.42,4.12,9.51,3.68,4.61-.49,12.17.13,16.17-2.35s3.94-6.64,5.27-10.62,5.68-12.71,11.86-9.4c6.71,3.59,2.51,15.28-.52,19.55-1.07,1.5-.42,3.42.6,4.69,9.8,12.17,27.44.15,25.61-13.42l-4.76,4.76c-3.46-1.41-1.5,10.75-.85,12.35,2,4.85,8.11,6.29,9.84,10.94s9.21,2.63,7.46-2.06c-3-7.93-10.6-10.67-10.6-20.29,0-4.14.56-6.62-3.8-8.4-3.09-1.27-5.1,2.25-4.76,4.76.73,5.36-8.39,11.2-12.67,5.89l.61,4.69c5.57-7.83,6.86-18.74,1-26.86s-13.86-6.8-20.19-.08c-4.29,4.56-4,8.39-6.68,13.24-2.93,5.32-14.89,5.69-18.32.84-1.32-1.87-3.09-8.64-2.83-11,.6-5.41,3.72-3.13,7.5-4.5,2.87-1,4.86-1.21,6.38-4.32,1.63-3.36.8-7.93-.15-11.36-1.72-6.18-1.73-4.23,2.64-8.86,2.59-2.75,1.5-6.57,3.56-9,1.64-2,5.49-1.18,7-3.92,1.4-2.47.49-4.38-.9-6.45-1.19-1.77-3.71-2.78-5.23-4.2-2.66-2.5-4.69-5.75-7.38-8.29-2.14-2-8.14-5.76-8.63-8.84-.31-1.94,2.44-5.83,3.14-7.58,1.41-3.56,2.53-6.51,1.47-10.33-1.32-4.8-8.79-2.76-7.46,2.06Z" />
    <path class="cls-3"
        d="M597.74,302.59c-5.14-6.25-16.43-15.52-24.42-8.48a8.4,8.4,0,0,0-3,6.82,7.17,7.17,0,0,0,2.19,5.12c2.25,2.13.55-1.42,2.46-1.35-1.39-.05-2.79.52-4.2.4-7.42-.64-10.87.13-11.31-9.22-.26-5.36,0-11-3.67-15.48-7.34-8.9-13.75-1.4-20.08,3.31-6,4.45-13.12,2-19.6,4.6a21.65,21.65,0,0,0-11.55,10.92c-3.23,6.7-4.71,13.75-8.48,20.3-3.17,5.5-5.8,10.7-6.42,17.14-1,10.2,1.44,23.67,8.57,31.5,9.44,10.36,19.79,6,31.7,4.65,4.86-.55,12.71.19,16.6,3.85,4.62,4.33,1.77,12.23-.06,17.3-3.23,9-9.38,15.31-15.39,22.41-3.58,4.21-7.07,8.81-8.46,14.26a38.83,38.83,0,0,0-.69,11.68c.19,3.05,2,8.41.16,11-2.94,4,3.77,7.9,6.68,3.91,4.23-5.78.81-12.05.9-18.75.14-10.36,6.72-16,13-23.44,7.8-9.21,16.18-23.75,14.25-36.41-1.65-10.75-18.52-14.79-27.53-13.67-10.53,1.3-20.71,6.89-27.66-5-5.18-8.87-6.08-21.66-2-30.9,3.38-7.61,7.48-14.11,10.16-22.06,2.47-7.27,6.25-11.56,14.33-12.5,3.84-.45,7,.7,10.73-.86,2.41-1,4-3.45,6.19-4.42l2-2.15q9.82,1.46,8.51,8.85c1.55,5.15-.08,11.07,5.23,14.84,4.35,3.1,16.32,3.66,21.12,1.09,2.65-1.41,3.66-2.86,3.21-6-.06-.47-2.23-5-2.55-4.4,2.9-5.73,12.28,5.13,13.52,6.63,3.16,3.85,8.61-1.65,5.47-5.47Z" />
    <path class="cls-4"
        d="M277.84,194.8c0,15.13,20.65,44.56,27.4,44.56,7.44,0,27.39-29.43,27.39-44.56a27.4,27.4,0,0,0-54.79,0Z" />
    <circle class="cls-5" cx="305.24" cy="191.63" r="11.75" />
    <path class="cls-3"
        d="M300.49,239.56c-9.72,0-30.61-32.6-30.61-47.78a30.62,30.62,0,0,1,61.23,0C331.11,207.41,310.51,239.56,300.49,239.56Zm0-71.94a24.19,24.19,0,0,0-24.16,24.16c0,13.91,19.09,40.44,24.25,41.34,4.92-.42,24.08-27.11,24.08-41.34A24.19,24.19,0,0,0,300.49,167.62Z" />
    <path class="cls-3"
        d="M300.49,203.59a15,15,0,1,1,15-15A15,15,0,0,1,300.49,203.59Zm0-23.5a8.53,8.53,0,1,0,8.53,8.52A8.53,8.53,0,0,0,300.49,180.09Z" />
    <path class="cls-4"
        d="M440.42,131.3c0,15.13,20.65,44.55,27.4,44.55,7.44,0,27.39-29.42,27.39-44.55a27.4,27.4,0,0,0-54.79,0Z" />
    <circle class="cls-5" cx="467.82" cy="128.13" r="11.75" />
    <path class="cls-3"
        d="M463.07,176.06c-9.73,0-30.61-32.6-30.61-47.78a30.62,30.62,0,1,1,61.23,0C493.69,143.91,473.09,176.06,463.07,176.06Zm0-71.94a24.19,24.19,0,0,0-24.16,24.16c0,13.91,19.09,40.44,24.25,41.33,4.92-.41,24.08-27.1,24.08-41.33A24.19,24.19,0,0,0,463.07,104.12Z" />
    <path class="cls-3"
        d="M463.07,140.09a15,15,0,1,1,15-15A15,15,0,0,1,463.07,140.09Zm0-23.51a8.53,8.53,0,1,0,8.53,8.53A8.54,8.54,0,0,0,463.07,116.58Z" />
    <path class="cls-4"
        d="M353.55,356.7c0,15.12,20.64,44.55,27.39,44.55,7.45,0,27.39-29.43,27.39-44.55a27.39,27.39,0,1,0-54.78,0Z" />
    <circle class="cls-5" cx="380.94" cy="353.53" r="11.75" />
    <path class="cls-3"
        d="M376.19,401.45c-9.73,0-30.61-32.59-30.61-47.77a30.62,30.62,0,1,1,61.23,0C406.81,369.3,386.21,401.45,376.19,401.45Zm0-71.94A24.19,24.19,0,0,0,352,353.68c0,13.9,19.09,40.43,24.25,41.33,4.92-.42,24.08-27.1,24.08-41.33A24.19,24.19,0,0,0,376.19,329.51Z" />
    <path class="cls-3"
        d="M376.19,365.48a15,15,0,1,1,15-15A15,15,0,0,1,376.19,365.48Zm0-23.5a8.53,8.53,0,1,0,8.53,8.52A8.53,8.53,0,0,0,376.19,342Z" />
    <path class="cls-4"
        d="M527.29,320.87c0,15.12,20.64,44.55,27.39,44.55,7.45,0,27.39-29.43,27.39-44.55a27.39,27.39,0,1,0-54.78,0Z" />
    <circle class="cls-5" cx="554.68" cy="317.69" r="11.75" />
    <path class="cls-3"
        d="M549.94,365.62c-9.73,0-30.62-32.59-30.62-47.77a30.62,30.62,0,1,1,61.24,0C580.56,333.47,560,365.62,549.94,365.62Zm0-71.94a24.19,24.19,0,0,0-24.17,24.17c0,13.9,19.09,40.43,24.25,41.33,4.93-.42,24.09-27.1,24.09-41.33A24.19,24.19,0,0,0,549.94,293.68Z" />
    <path class="cls-3"
        d="M549.94,329.65a15,15,0,1,1,15-15A15,15,0,0,1,549.94,329.65Zm0-23.5a8.53,8.53,0,1,0,8.52,8.53A8.54,8.54,0,0,0,549.94,306.15Z" />
</svg>